# xmcd
#
# Track frame offsets:
#	150
#	28961
#	50387
#	70335
#	93314
#	119148
#	155946
#	202222
#	228928
#	262287
#
# Disc length: 4155 seconds
#
# Revision: 2
# Processed by: cddbd v1.5.2PL0 Copyright (c) Steve Scherf et al.
# Submitted via: audiograbber 1.83.01
#
DISCID=9f10390a
DTITLE=Peter Gabriel - The Warm Up Tour - Summer 2007 [Hamburg 19/06/07] [CD 2)
DYEAR=2007
DGENRE=Progressive Rock
TTITLE0=Steam [live]
TTITLE1=Mother Of Violence [live]
TTITLE2=Humdrum [live]
TTITLE3=Big Time [live]
TTITLE4=Not One Of Us [live]
TTITLE5=Lay Your Hands On Me [live]
TTITLE6=Encore: Digging In The Dirt [live]
TTITLE7=Encore: Solsbury Hill [live]
TTITLE8=Encore: Sledgehammer [live]
TTITLE9=Encore: In Your Eyes [live]
EXTD=
EXTT0=
EXTT1=
EXTT2=
EXTT3=
EXTT4=
EXTT5=
EXTT6=
EXTT7=
EXTT8=
EXTT9=
PLAYORDER=
